<svg id="svg" xmlns="http://www.w3.org/2000/svg" width="1000px" height="600px">
<g onmousedown="zoom(event)" onmousemove="zoom(event)" onload="init()">
<rect id="zoominger" x="0" y="221" width="30" height="-31" fill="none" strok="black" opacity="1"></rect>
<rect x="0" y="0" width="30" height="220" fill="black" stroke="none" opacity="0.05"></rect>
<g id="steps" transform="translate(0,220)">

<text x="24" y="-2" text-anchor="end">0</text><rect width="25" height="1" y="0"></rect><rect width="5" height="1" y="-10"></rect><rect width="5" height="1" y="-20"></rect><rect width="5" height="1" y="-30"></rect><rect width="5" height="1" y="-40"></rect><text x="24" y="-52" text-anchor="end">5</text><rect width="25" height="1" y="-50"></rect><rect width="5" height="1" y="-60"></rect><rect width="5" height="1" y="-70"></rect><rect width="5" height="1" y="-80"></rect><rect width="5" height="1" y="-90"></rect><text x="24" y="-102" text-anchor="end">10</text><rect width="25" height="1" y="-100"></rect><rect width="5" height="1" y="-110"></rect><rect width="5" height="1" y="-120"></rect><rect width="5" height="1" y="-130"></rect><rect width="5" height="1" y="-140"></rect><text x="24" y="-152" text-anchor="end">15</text><rect width="25" height="1" y="-150"></rect><rect width="5" height="1" y="-160"></rect><rect width="5" height="1" y="-170"></rect><rect width="5" height="1" y="-180"></rect><rect width="5" height="1" y="-190"></rect><text x="24" y="-202" text-anchor="end">20</text><rect width="25" height="1" y="-200"></rect><rect width="5" height="1" y="-210"></rect><text x="24" y="-2" text-anchor="end">0</text><rect width="25" height="1" y="0"></rect><rect width="5" height="1" y="-10"></rect><rect width="5" height="1" y="-20"></rect><rect width="5" height="1" y="-30"></rect><rect width="5" height="1" y="-40"></rect><text x="24" y="-52" text-anchor="end">5</text><rect width="25" height="1" y="-50"></rect><rect width="5" height="1" y="-60"></rect><rect width="5" height="1" y="-70"></rect><rect width="5" height="1" y="-80"></rect><rect width="5" height="1" y="-90"></rect><text x="24" y="-102" text-anchor="end">10</text><rect width="25" height="1" y="-100"></rect><rect width="5" height="1" y="-110"></rect><rect width="5" height="1" y="-120"></rect><rect width="5" height="1" y="-130"></rect><rect width="5" height="1" y="-140"></rect><text x="24" y="-152" text-anchor="end">15</text><rect width="25" height="1" y="-150"></rect><rect width="5" height="1" y="-160"></rect><rect width="5" height="1" y="-170"></rect><rect width="5" height="1" y="-180"></rect><rect width="5" height="1" y="-190"></rect><text x="24" y="-202" text-anchor="end">20</text><rect width="25" height="1" y="-200"></rect><rect width="5" height="1" y="-210"></rect></g></g>


</svg>
